<svg xmlns="http://www.w3.org/2000/svg" width="26.883" height="23.854" viewBox="0 0 26.883 23.854">
  <g id="attention" transform="translate(-45.657 -656.761)">
    <g id="Group_408" data-name="Group 408">
      <g id="Group_407" data-name="Group 407">
        <path id="Path_244" data-name="Path 244" d="M72.133,677.153,61.08,658.126a2.445,2.445,0,0,0-2-1.365,2.363,2.363,0,0,0-2,1.365l-10.99,19.027a2.311,2.311,0,0,0-.159,2.414,2.4,2.4,0,0,0,2.192,1.048H70.1a2.162,2.162,0,0,0,2.033-3.462ZM71.085,678.9a1.131,1.131,0,0,1-1.016.381H48.088a1.175,1.175,0,0,1-1.016-.381,1.086,1.086,0,0,1,.159-1.08l10.99-19.027c.254-.444.572-.7.857-.7s.6.254.858.7l10.99,19.027A1.088,1.088,0,0,1,71.085,678.9Z" fill="#fff"/>
      </g>
    </g>
    <g id="Group_410" data-name="Group 410">
      <g id="Group_409" data-name="Group 409">
        <path id="Path_245" data-name="Path 245" d="M59.078,663.018a.651.651,0,0,0-.667.667v8.83a.667.667,0,0,0,1.334,0v-8.83A.651.651,0,0,0,59.078,663.018Z" fill="#fff"/>
      </g>
    </g>
    <g id="Group_412" data-name="Group 412">
      <g id="Group_411" data-name="Group 411">
        <circle id="Ellipse_40" data-name="Ellipse 40" cx="1.175" cy="1.175" r="1.175" transform="translate(57.903 674.675)" fill="#fff"/>
      </g>
    </g>
  </g>
</svg>
