<svg xmlns="http://www.w3.org/2000/svg" width="29.464" height="24.593" viewBox="0 0 29.464 24.593">
  <g id="chat" transform="translate(-44.739 -306.334)">
    <g id="Group_415" data-name="Group 415">
      <g id="Group_414" data-name="Group 414">
        <path id="Path_246" data-name="Path 246" d="M58.249,326.22H71.891a2.313,2.313,0,0,0,2.312-2.312V308.646a2.312,2.312,0,0,0-2.312-2.312H47.051a2.313,2.313,0,0,0-2.312,2.312v15.268a2.313,2.313,0,0,0,2.312,2.312h1.078v3.557a1.15,1.15,0,0,0,1.144,1.144,1.121,1.121,0,0,0,.806-.337L54.745,326a.735.735,0,0,0,0-1.042c-.289-.289-.837-.12-1.126.169l-4.184,4.184v-3.666a.741.741,0,0,0-.741-.741H46.882a.835.835,0,0,1-.837-.836V308.477a.836.836,0,0,1,.837-.837H72.06a.835.835,0,0,1,.837.837v15.606a.835.835,0,0,1-.837.836H58.249a.674.674,0,0,0-.741.657A.665.665,0,0,0,58.249,326.22Z" fill="#fff"/>
      </g>
    </g>
  </g>
</svg>
