<svg xmlns="http://www.w3.org/2000/svg" width="30.155" height="30.155" viewBox="0 0 30.155 30.155">
  <g id="data" transform="translate(-44.043 -364.83)">
    <path id="Path_234" data-name="Path 234" d="M59.12,378.651c-3.025,0-6.282-.786-6.282-2.513s3.257-2.513,6.282-2.513,6.283.787,6.283,2.513S62.146,378.651,59.12,378.651Zm0-3.769c-3.3,0-5.025.933-5.025,1.256s1.727,1.257,5.025,1.257,5.026-.934,5.026-1.257S62.419,374.882,59.12,374.882Z" fill="#fff"/>
    <path id="Path_235" data-name="Path 235" d="M59.12,386.19c-3.025,0-6.282-.787-6.282-2.513v-7.539a.629.629,0,0,1,1.257,0v7.539c0,.323,1.727,1.256,5.025,1.256s5.026-.933,5.026-1.256v-7.539a.628.628,0,0,1,1.257,0v7.539C65.4,385.4,62.146,386.19,59.12,386.19Z" fill="#fff"/>
    <path id="Path_236" data-name="Path 236" d="M59.12,382.42c-3.025,0-6.282-.786-6.282-2.513a.629.629,0,0,1,1.257,0c0,.323,1.727,1.257,5.025,1.257s5.026-.934,5.026-1.257a.628.628,0,0,1,1.257,0C65.4,381.634,62.146,382.42,59.12,382.42Z" fill="#fff"/>
    <path id="Path_237" data-name="Path 237" d="M45.011,383.677a.628.628,0,0,1-.612-.49,14.926,14.926,0,0,1-.356-3.28,15.063,15.063,0,0,1,27.206-8.926.628.628,0,1,1-1.014.742A13.806,13.806,0,0,0,45.3,379.907a13.67,13.67,0,0,0,.324,3,.628.628,0,0,1-.475.752.654.654,0,0,1-.138.015Z" fill="#fff"/>
    <path id="Path_238" data-name="Path 238" d="M59.12,394.985a15.066,15.066,0,0,1-12.181-6.229.628.628,0,0,1,1.018-.736,13.8,13.8,0,0,0,24.984-8.113,12.99,12.99,0,0,0-.334-3,.628.628,0,0,1,1.222-.29,14.271,14.271,0,0,1,.369,3.285A15.1,15.1,0,0,1,59.12,394.985Z" fill="#fff"/>
    <path id="Path_239" data-name="Path 239" d="M47.1,393.434a.5.5,0,0,1-.5-.494l-.05-4.99a.5.5,0,0,1,.5-.5h4.99a.5.5,0,1,1,0,1H47.559l.045,4.486a.5.5,0,0,1-.494.5Z" fill="#fff"/>
    <path id="Path_240" data-name="Path 240" d="M71.663,372.812H67.015a.465.465,0,1,1,0-.929H71.2V367.7a.465.465,0,0,1,.929,0v4.649A.465.465,0,0,1,71.663,372.812Z" fill="#fff"/>
  </g>
</svg>
