<svg xmlns="http://www.w3.org/2000/svg" width="29.496" height="32.343" viewBox="0 0 29.496 32.343">
  <g id="dollar" transform="translate(-44.19 -594.04)">
    <path id="Path_241" data-name="Path 241" d="M56.381,619.633a.428.428,0,0,1,.6,0l3.055,2.995a.428.428,0,0,1,0,.608l-3.025,3.025a.428.428,0,0,1-.6-.6l2.719-2.72-2.746-2.692a.427.427,0,0,1-.006-.605l0,0Z" fill="#fff"/>
    <path id="Path_242" data-name="Path 242" d="M58.938,622.951a14.16,14.16,0,1,1,8.3-2.682" fill="none" stroke="#fff" stroke-miterlimit="10" stroke-width="1.17"/>
    <g id="Group_405" data-name="Group 405">
      <path id="Path_243" data-name="Path 243" d="M58.851,604.721a1.708,1.708,0,0,1,1.853,1.505H62.51a3.394,3.394,0,0,0-2.756-3.2v-1.354H57.948v1.354a3.394,3.394,0,0,0-2.756,3.2,3.5,3.5,0,0,0,3.659,3.307A1.538,1.538,0,1,1,57,611.038H55.192a3.4,3.4,0,0,0,2.756,3.2V615.6h1.806v-1.353a3.4,3.4,0,0,0,2.756-3.2,3.5,3.5,0,0,0-3.659-3.307,1.538,1.538,0,1,1,0-3.01Z" fill="#fff"/>
    </g>
  </g>
</svg>
