<svg xmlns="http://www.w3.org/2000/svg" width="31.03" height="15.874" viewBox="0 0 31.03 15.874">
  <g id="graph" transform="translate(-44.036 -427.973)">
    <g id="Group_400" data-name="Group 400">
      <path id="Path_232" data-name="Path 232" d="M74.861,428.182a.722.722,0,0,0-.7-.185l-4.946,1.388a.727.727,0,0,0-.5.505.718.718,0,0,0,.185.684l1.274,1.274L59.909,442.124l-7.2-7.2a.709.709,0,0,0-1,0l-7.458,7.458a.71.71,0,1,0,1,1l6.946-6.946,7.2,7.2a.7.7,0,0,0,.506.207.729.729,0,0,0,.505-.207l10.782-10.782,1.274,1.274a.716.716,0,0,0,.505.206.772.772,0,0,0,.178-.021.726.726,0,0,0,.5-.5l1.388-4.946A.708.708,0,0,0,74.861,428.182Zm-2.249,4.078-.918-.918h0l-.918-.918,2.555-.719Z" fill="#fff"/>
    </g>
  </g>
</svg>
