<svg xmlns="http://www.w3.org/2000/svg" width="27.549" height="24.509" viewBox="0 0 27.549 24.509">
  <path id="heart" d="M59.761,505.917a1.613,1.613,0,0,1-1.065-.4c-1.113-.973-2.186-1.888-3.133-2.694l-.005-.005a58.227,58.227,0,0,1-6.839-6.419,10.251,10.251,0,0,1-2.733-6.712,8.608,8.608,0,0,1,2.186-5.881,7.406,7.406,0,0,1,5.51-2.4,6.928,6.928,0,0,1,4.329,1.494,8.862,8.862,0,0,1,1.75,1.827,8.836,8.836,0,0,1,1.75-1.827,6.925,6.925,0,0,1,4.328-1.494,7.407,7.407,0,0,1,5.511,2.4,8.612,8.612,0,0,1,2.185,5.881A10.255,10.255,0,0,1,70.8,496.4a58.307,58.307,0,0,1-6.839,6.419c-.949.808-2.023,1.724-3.139,2.7A1.612,1.612,0,0,1,59.761,505.917Zm-6.079-22.9a5.811,5.811,0,0,0-4.324,1.879,7,7,0,0,0-1.758,4.787,8.627,8.627,0,0,0,2.361,5.682A57.323,57.323,0,0,0,56.6,501.59l.005.005c.95.809,2.027,1.727,3.148,2.708,1.128-.982,2.207-1.9,3.159-2.713a57.3,57.3,0,0,0,6.643-6.221,8.627,8.627,0,0,0,2.361-5.682,7,7,0,0,0-1.758-4.787,5.809,5.809,0,0,0-4.324-1.879,5.354,5.354,0,0,0-3.341,1.157,7.832,7.832,0,0,0-1.862,2.155,1.019,1.019,0,0,1-1.75,0,7.838,7.838,0,0,0-1.863-2.155A5.354,5.354,0,0,0,53.682,483.021Z" transform="translate(-45.986 -481.408)" fill="#fff"/>
</svg>
