<svg xmlns="http://www.w3.org/2000/svg" width="26.815" height="21.715" viewBox="0 0 26.815 21.715">
  <g id="kraken" transform="translate(-45.804 -539.118)">
    <path id="Path_230" data-name="Path 230" d="M46.507,558.363v-5.817c.007-.045.018-.09.021-.136.022-.342.026-.687.068-1.027.061-.487.128-.975.229-1.455a12.544,12.544,0,0,1,1.244-3.381,12.841,12.841,0,0,1,2.69-3.448,12.593,12.593,0,0,1,4.18-2.534,12.158,12.158,0,0,1,3.585-.73,13.369,13.369,0,0,1,1.525.017,13.528,13.528,0,0,1,1.5.184,12.075,12.075,0,0,1,3.546,1.248,12.709,12.709,0,0,1,3.766,3.057,12.988,12.988,0,0,1,3.01,7.391c.034.444.04.892.041,1.338q.006,2.56,0,5.121a2.081,2.081,0,0,1-.04.453,1.781,1.781,0,0,1-1.273,1.4,4.269,4.269,0,0,1-.425.086h-.139a.437.437,0,0,0-.1-.024,1.707,1.707,0,0,1-1.076-.495,1.817,1.817,0,0,1-.559-1.353q0-2.711,0-5.419a2.626,2.626,0,0,0-.051-.531,1.814,1.814,0,0,0-2.572-1.243,1.767,1.767,0,0,0-1.03,1.651c-.012,1.819,0,3.639,0,5.458a3.046,3.046,0,0,1-.017.317,1.8,1.8,0,0,1-1.373,1.575c-.115.027-.233.043-.349.064H62.77c-.107-.02-.214-.033-.319-.059a1.812,1.812,0,0,1-1.4-1.77q0-2.763,0-5.526a1.985,1.985,0,0,0-.144-.753,1.821,1.821,0,0,0-2.378-1.009,1.873,1.873,0,0,0-1.143,1.753q0,2.748,0,5.5a2.437,2.437,0,0,1-.019.3A1.811,1.811,0,0,1,56,560.065c-.112.025-.225.043-.338.065H55.5c-.031-.009-.062-.018-.094-.025a3.661,3.661,0,0,1-.367-.075,1.818,1.818,0,0,1-1.259-1.722q0-2.754,0-5.508a2.69,2.69,0,0,0-.018-.3,1.825,1.825,0,0,0-2-1.613A1.8,1.8,0,0,0,50.277,552a1.983,1.983,0,0,0-.154.841q0,2.69,0,5.379a2.618,2.618,0,0,1-.029.4,1.816,1.816,0,0,1-1.448,1.464c-.084.014-.167.03-.251.045h-.139c-.065-.01-.13-.018-.194-.03a1.788,1.788,0,0,1-1.471-1.324C46.55,558.642,46.534,558.5,46.507,558.363Z" fill="none" stroke="#fff" stroke-miterlimit="10" stroke-width="1.405"/>
  </g>
</svg>
