<svg xmlns="http://www.w3.org/2000/svg" width="18.519" height="21.07" viewBox="0 0 18.519 21.07">
  <g id="bell-icon" transform="translate(-1250.549 -474.677)">
    <path id="Path_76" data-name="Path 76" d="M1268.956,492.028a8.565,8.565,0,0,1-2.69-6.241v-3.446a5.576,5.576,0,0,0-3.268-5.063,7.718,7.718,0,0,0-1.338-.465v-.22a1.916,1.916,0,1,0-3.831,0v.253a7.594,7.594,0,0,0-1.206.436,5.8,5.8,0,0,0-3.392,5.057v3.448a8.5,8.5,0,0,1-2.569,6.241.383.383,0,0,0,.2.649l3.636.628c.678.117,1.3.213,1.895.292a3.788,3.788,0,0,0,6.832,0c.591-.078,1.212-.174,1.885-.29l3.636-.628a.383.383,0,0,0,.205-.649Zm-10.362-15.435a1.149,1.149,0,1,1,2.3,0v.069a7.671,7.671,0,0,0-2.3.018Zm1.22,18.388a3.072,3.072,0,0,1-2.459-1.27,22.713,22.713,0,0,0,4.918,0A3.07,3.07,0,0,1,1259.814,494.981Zm5.171-2.431c-.735.127-1.409.23-2.046.311h0c-.281.035-.553.066-.82.093h-.009c-.244.025-.483.044-.719.061l-.134.01c-.2.013-.407.024-.608.031l-.124.005c-.476.016-.946.016-1.423,0l-.127-.006c-.2-.007-.4-.018-.6-.031l-.143-.01c-.23-.016-.462-.036-.7-.059l-.025,0q-.4-.04-.814-.093h0c-.639-.081-1.315-.185-2.053-.312l-2.935-.507a9.221,9.221,0,0,0,2.3-6.256v-3.446a5.015,5.015,0,0,1,2.947-4.363,6.844,6.844,0,0,1,1.339-.454h.012a6.965,6.965,0,0,1,2.9-.026c.005,0,.01,0,.015,0a6.932,6.932,0,0,1,1.465.478,4.863,4.863,0,0,1,2.82,4.365v3.447a9.319,9.319,0,0,0,2.419,6.257Z" fill="#fff"/>
  </g>
</svg>
