<svg xmlns="http://www.w3.org/2000/svg" width="16.156" height="18.211" viewBox="0 0 16.156 18.211">
  <g id="delete" transform="translate(-1191.352 -418.573)">
    <g id="Group_452" data-name="Group 452">
      <g id="Group_451" data-name="Group 451">
        <path id="Path_275" data-name="Path 275" d="M1205.337,423.709h-11.814a.464.464,0,0,0-.35.117.4.4,0,0,0-.117.35l1.214,10.576a2.312,2.312,0,0,0,2.312,2.031h5.883a2.311,2.311,0,0,0,2.335-2.1l1-10.553a.4.4,0,0,0-.117-.3A.464.464,0,0,0,1205.337,423.709Zm-1.471,10.926a1.356,1.356,0,0,1-1.4,1.215h-5.883a1.331,1.331,0,0,1-1.378-1.191l-1.167-10.016h10.786Z" fill="#fff"/>
        <path id="Path_276" data-name="Path 276" d="M1207.041,420.674h-4.809v-.747a1.308,1.308,0,0,0-1.26-1.354c-.024,0-.048,0-.071,0h-2.942a1.306,1.306,0,0,0-1.331,1.283c0,.023,0,.047,0,.071v.747h-4.809a.467.467,0,0,0,0,.934h15.222a.467.467,0,1,0,0-.934Zm-5.743-.747v.747h-3.736v-.747a.373.373,0,0,1,.323-.418.368.368,0,0,1,.074,0h2.942a.373.373,0,0,1,.4.346A.366.366,0,0,1,1201.3,419.927Z" fill="#fff"/>
      </g>
    </g>
  </g>
</svg>
