<svg xmlns="http://www.w3.org/2000/svg" width="25.391" height="14.812" viewBox="0 0 25.391 14.812">
  <g id="eye" transform="translate(-1223.91 -420.054)">
    <g id="Group_445" data-name="Group 445">
      <g id="Group_444" data-name="Group 444">
        <path id="Path_272" data-name="Path 272" d="M1249.207,427.16c-.2-.291-5.006-7.106-12.6-7.106-6.518,0-12.327,6.776-12.571,7.064a.532.532,0,0,0,0,.684c.244.289,6.053,7.064,12.571,7.064s12.327-6.775,12.571-7.064A.529.529,0,0,0,1249.207,427.16Zm-12.6,6.648c-5.225,0-10.194-4.983-11.456-6.348,1.26-1.366,6.223-6.348,11.456-6.348,6.114,0,10.43,4.976,11.484,6.32C1246.872,428.753,1241.875,433.808,1236.6,433.808Z" fill="#fff"/>
      </g>
    </g>
    <g id="Group_447" data-name="Group 447">
      <g id="Group_446" data-name="Group 446">
        <path id="Path_273" data-name="Path 273" d="M1236.6,423.228a4.232,4.232,0,1,0,4.232,4.232A4.236,4.236,0,0,0,1236.6,423.228Zm0,7.406a3.174,3.174,0,1,1,3.174-3.174A3.178,3.178,0,0,1,1236.6,430.634Z" fill="#fff"/>
      </g>
    </g>
  </g>
</svg>
