<svg xmlns="http://www.w3.org/2000/svg" width="21.56" height="15.455" viewBox="0 0 21.56 15.455">
  <g id="graph-icon" transform="translate(-1263.001 -420.107)">
    <g id="Group_449" data-name="Group 449">
      <path id="Path_274" data-name="Path 274" d="M1284.336,420.209a.549.549,0,0,0-.547-.052l-3.544,1.661a.554.554,0,0,0-.311.442.546.546,0,0,0,.225.491l1.116.8-6.433,9.007-6.313-4.512a.54.54,0,0,0-.754.125l-4.673,6.538a.54.54,0,1,0,.879.629l4.352-6.089,6.313,4.512a.531.531,0,0,0,.406.092.556.556,0,0,0,.354-.218l6.755-9.451,1.117.8a.543.543,0,0,0,.405.092.612.612,0,0,0,.131-.038.554.554,0,0,0,.318-.438l.425-3.891A.538.538,0,0,0,1284.336,420.209Zm-1.18,3.346-.805-.576h0l-.8-.575,1.83-.859Z" fill="#fff"/>
    </g>
  </g>
</svg>
