<svg xmlns="http://www.w3.org/2000/svg" width="21.334" height="19.438" viewBox="0 0 21.334 19.438">
  <g id="pencil" transform="translate(-1151.588 -417.83)">
    <g id="Group_439" data-name="Group 439">
      <path id="Path_269" data-name="Path 269" d="M1172.437,437.268h-14.546a.484.484,0,1,1,0-.969h14.546a.484.484,0,1,1,0,.969Z" fill="#fff"/>
    </g>
    <g id="Group_442" data-name="Group 442">
      <g id="Group_440" data-name="Group 440">
        <path id="Path_270" data-name="Path 270" d="M1152.073,437.268a.489.489,0,0,1-.343-.141.484.484,0,0,1-.129-.454l1.057-4.485a.483.483,0,0,1,.129-.232l13.714-13.714a1.49,1.49,0,0,1,2.057,0l2.057,2.057a1.457,1.457,0,0,1,0,2.057L1156.9,436.069a.469.469,0,0,1-.232.129l-4.484,1.057A.429.429,0,0,1,1152.073,437.268Zm1.5-4.725-.845,3.588,3.588-.846,13.616-13.615a.48.48,0,0,0,.142-.343.488.488,0,0,0-.142-.344l-2.057-2.056a.494.494,0,0,0-.685,0Zm2.988,3.184h0Z" fill="#fff"/>
      </g>
      <g id="Group_441" data-name="Group 441">
        <path id="Path_271" data-name="Path 271" d="M1167,425.774a.487.487,0,0,1-.343-.142l-3.428-3.429a.484.484,0,1,1,.685-.685l3.429,3.428a.485.485,0,0,1-.343.828Z" fill="#fff"/>
      </g>
    </g>
  </g>
</svg>
